<svg width="795" height="794" viewBox="0 0 795 794" fill="none" xmlns="http://www.w3.org/2000/svg">
<path d="M397.547 0.0529119H397.493C178.347 0.0529119 0.813328 177.653 0.826661 396.746C0.813328 615.719 178.293 793.439 397.467 793.439H397.56C620.106 793.439 794.24 612.919 794.213 396.746C794.24 177.773 616.733 0.0529119 397.547 0.0529119Z" fill="#F7F8FA"/>
<path d="M370.28 345.614C370.106 344.894 369.947 344.174 369.773 343.44C370.093 344.214 370.4 344.907 370.68 345.494C370.546 345.534 370.413 345.56 370.28 345.614ZM592.146 548.654C600.893 533.414 607.32 515.587 610.88 497.32C614.293 479.027 614.84 460.467 613.96 443.294C613.146 434.734 612.68 426.427 611.16 418.734C610.506 414.88 609.867 411.12 609.24 407.48C608.587 403.707 607.56 400.16 606.6 396.84C605.88 394.44 605.12 392.174 604.346 389.96C604.333 389.56 604.293 389.12 604.307 388.72L604.36 387.32L604.493 385.507C604.573 384.28 604.666 383.027 604.76 381.774C606.106 361.707 607.266 338.507 609.413 313.734C610.44 301.387 611.867 288.534 612.84 275.24C613.773 261.947 614.507 248.294 613.187 234.094C612.84 230.547 612.346 226.947 611.546 223.294C610.746 219.64 609.747 215.92 608.04 212.16C606.347 208.427 604 204.534 600.293 201.28C596.666 197.974 591.466 195.934 586.88 195.547C582.613 195.027 577.88 195.534 573.64 197.12C569.373 198.694 565.72 201.24 562.8 204.04C559.84 206.854 557.533 209.934 555.626 213.027C553.68 216.12 552.107 219.254 550.733 222.374C545.333 234.867 542.626 247.054 540.346 258.547C538.253 269.52 536.8 279.867 535.533 289.454C535.227 280.507 534.786 271.027 534.226 261.08C533.533 249.014 532.746 236.28 531.413 223C530.053 209.747 528.213 195.974 524.72 181.934C522.88 174.92 520.707 167.814 517.24 160.747C515.533 157.227 513.467 153.694 510.707 150.334C507.987 146.987 504.48 143.734 499.987 141.507C495.56 139.24 490.067 138.414 485.52 138.88C481.04 139.214 476.28 140.467 472.173 142.894C468.053 145.254 464.667 148.507 462.053 151.947C459.387 155.387 457.467 159.04 455.933 162.667C455.627 163.374 455.4 164.08 455.133 164.787C454.88 163.68 454.653 162.587 454.373 161.48C452.48 153.974 450.053 146.32 445.733 138.774C443.56 135.027 440.84 131.267 437.026 128.027C433.28 124.787 428.213 122.267 422.946 121.56C421.666 121.44 420.333 121.307 419.067 121.267L415.48 121.427C413.066 121.694 410.627 122.08 408.253 122.894C403.507 124.414 399.16 127.134 395.72 130.36C392.227 133.587 389.667 137.294 387.52 140.987C385.36 144.694 383.733 148.48 382.36 152.24C379.626 159.774 377.893 167.254 376.6 174.614C375.293 181.96 374.426 189.2 373.76 196.28C372.466 210.454 371.973 224.04 371.626 236.867C371.36 249.654 371.107 261.734 370.867 272.894C370.547 292.2 370.48 308.734 370.733 321.294C368.733 309.294 365.68 293.774 361.773 275.84C359.48 265.174 356.933 253.587 353.787 241.347C350.627 229.12 346.96 216.227 341.853 203.067C339.253 196.494 336.387 189.84 332.587 183.267C328.76 176.747 324.333 170.04 317.12 164.507C313.533 161.8 309.027 159.48 303.933 158.627C302.667 158.387 301.386 158.24 300.093 158.254C298.8 158.2 297.52 158.227 296.28 158.427C295.013 158.574 293.76 158.747 292.68 159.067C291.546 159.374 290.413 159.587 289.293 160.014C284.786 161.467 280.467 164.187 277.053 167.56C273.627 170.934 271.093 174.894 269.213 178.88C265.64 186.907 264.28 194.947 263.6 202.68C262.92 210.454 263.067 218 263.467 225.387C264.333 240.16 266.4 254.32 268.64 267.88C273.2 294.92 278.227 319.774 282.587 341.214C285.733 356.494 288.64 369.907 291.213 380.827C291.573 384.32 291.933 387.974 292.253 391.787C292.68 397.294 293.053 403.174 292.946 409.134C292.893 412.08 292.693 415.187 292.2 417.72C291.973 418.547 291.586 419.68 290.56 419.507C290.093 419.467 289.733 419.347 289.293 419.12C288.413 418.8 286.84 417.96 285.573 417.254C282.867 415.587 280.067 413.68 277.253 411.454C271.613 407.08 265.867 402.054 259.973 396.84C254.067 391.56 248 386.147 241.787 380.6C238.653 377.827 235.48 375.04 232.28 372.214C230.626 370.8 229.147 369.427 227.333 367.947C225.507 366.494 223.747 364.96 221.773 363.627C214.107 358.08 205.027 353.494 194.8 351.614C184.627 349.614 173.4 350.84 163.613 355.44C158.733 357.734 154.2 360.827 150.24 364.614C146.28 368.414 142.827 372.867 140.44 378.214C138.067 383.467 136.493 389.854 138.08 396.854C138.426 398.574 139.146 400.307 139.88 401.92L141.946 405.507C142.626 406.747 143.413 407.774 144.173 408.827C144.947 409.88 145.693 411 146.507 411.974C152.907 419.854 159.8 426.28 166.52 432.654C173.253 439 179.92 445.147 186.253 451.427C198.947 463.96 210.52 476.974 220.04 490.734C221.253 492.467 222.44 494.187 223.64 495.894C224.867 497.694 226.08 499.494 227.307 501.267C229.693 504.854 232.2 508.32 234.693 511.747C239.626 518.614 244.733 525.16 249.853 531.4C260.093 543.907 270.747 555.014 281.373 564.44C291.96 573.894 302.693 581.52 312.773 587.267C320.36 591.6 327.613 594.814 334.107 597.16C333.307 598.12 332.547 599.16 331.84 600.32C330.587 602.32 329.667 604.787 329.133 607.44C328.733 610.32 328.72 612.6 329.08 615.16C329.333 617.694 330.133 620.254 331.133 622.747C332.253 625.16 333.6 627.56 335.307 629.627C338.653 633.867 342.88 637.2 347.346 639.854C356.346 645.16 366.32 648.307 376.587 650.667C397.147 655.214 419.12 656.494 440.907 656.547C462.693 656.507 484.653 655.227 505.226 650.694C515.493 648.347 525.467 645.227 534.467 639.934C538.933 637.294 543.173 634 546.533 629.774C548.253 627.734 549.613 625.334 550.76 622.92C551.773 620.44 552.573 617.88 552.867 615.347C553.067 614.08 553.133 612.84 553.133 611.614C553.2 610.467 553.04 609.014 552.867 607.667C552.373 604.987 551.453 602.52 550.226 600.507C549.373 599.067 548.413 597.84 547.44 596.694C552.08 593.747 557.08 590.134 562.107 585.614C572.587 576.467 583.466 563.934 592.146 548.654" fill="#A9BECE"/>
<path d="M329.373 604.867C329.373 633.453 376.92 642.96 435.573 642.96C494.24 642.96 541.787 633.453 541.787 604.867C541.787 583.813 494.24 566.76 435.573 566.76C376.92 566.76 329.373 583.813 329.373 604.867Z" fill="white"/>
<path d="M336.72 594.093C336.72 612.773 380.987 618.986 435.573 618.986C490.173 618.986 534.44 612.773 534.44 594.093C534.44 580.346 490.173 569.2 435.573 569.2C380.987 569.2 336.72 580.346 336.72 594.093Z" fill="#B8C7E6"/>
<path d="M341.293 590.853C345.453 586.84 350.24 583.973 354.093 581.64C361.96 577.027 366.907 574.613 366.453 573.227C366.08 572.027 360.493 572.107 351.16 575.12C346.533 576.72 340.88 578.84 334.933 583.187C332 585.387 328.894 588.133 326.44 592.213C325.174 594.213 324.253 596.68 323.72 599.333C323.32 602.2 323.32 604.48 323.667 607.04C323.933 609.587 324.72 612.133 325.72 614.627C326.84 617.053 328.2 619.453 329.907 621.52C333.254 625.76 337.48 629.093 341.947 631.733C350.933 637.053 360.92 640.187 371.174 642.547C391.747 647.107 413.707 648.387 435.493 648.427C457.28 648.387 479.253 647.12 499.827 642.587C510.08 640.227 520.067 637.107 529.053 631.827C533.533 629.173 537.773 625.893 541.133 621.667C542.853 619.613 544.213 617.213 545.347 614.813C546.373 612.32 547.16 609.773 547.453 607.24C547.653 605.973 547.733 604.72 547.72 603.493C547.787 602.347 547.627 600.907 547.453 599.547C546.973 596.88 546.053 594.413 544.813 592.387C542.373 588.28 539.28 585.507 536.347 583.307C530.413 578.933 524.76 576.787 520.133 575.187C510.813 572.16 505.213 572.08 504.853 573.28C504.4 574.667 509.333 577.08 517.2 581.707C521.053 584.04 525.813 586.92 529.96 590.947C532.013 592.933 533.893 595.227 534.933 597.613C536.053 600.053 536.027 601.947 535.374 605.173C534.2 610.893 529.387 615.893 522.174 619.587C515 623.293 506.107 625.787 496.707 627.587C477.774 631.107 456.614 632.067 435.507 632.093C414.387 632.067 393.227 631.08 374.307 627.56C364.907 625.747 356.013 623.253 348.867 619.52C341.667 615.8 336.893 610.813 335.76 605.053C335.387 603.653 335.333 601.96 335.333 601C335.48 599.867 335.68 598.693 336.28 597.507C337.333 595.133 339.227 592.84 341.293 590.853" fill="#303030"/>
<path d="M435.573 620.32C535.52 620.32 619.72 545.4 595.813 403.774C588.053 357.854 515.693 329.227 435.573 329.227C369.453 329.227 317.453 343.614 292.28 398.08C301.933 432.454 273.613 446.294 273.613 474.774C273.613 555.16 346.133 620.32 435.573 620.32Z" fill="white"/>
<path d="M217.947 369.08C171.987 330.133 131.6 372.653 141.733 392.786C152.707 414.586 193.413 438.373 224.107 485.626C299.427 601.56 353.2 582.773 358.813 594.68C379.987 554.706 295.907 414.36 295.907 414.36C288.067 433.053 263.907 408.026 217.947 369.08" fill="white"/>
<path d="M573.293 533.214C566 547.347 556.96 559.28 548.2 568.667C539.56 578.227 530.88 584.747 525.08 589.84C519.013 594.507 515.666 597.694 516.293 598.92C516.906 600.12 521.387 599.04 528.84 595.92C536 592.387 546.293 586.854 556.693 577.507C567.186 568.347 578.066 555.827 586.746 540.534C595.493 525.307 601.92 507.467 605.466 489.214C608.893 470.907 609.44 452.347 608.56 435.174C607.733 426.627 607.266 418.32 605.746 410.627C605.093 406.76 604.453 403.014 603.84 399.374C603.173 395.6 602.16 392.04 601.187 388.734C597.2 375.454 592.28 365.054 588.12 358.174C583.96 351.307 580.68 347.947 579.52 348.574C576.947 349.934 584.346 366.147 589.293 391.654C589.866 394.854 590.493 398.094 590.787 401.467C591.12 404.987 591.466 408.614 591.813 412.36C592.786 419.814 592.787 427.694 593.253 435.814C593.413 452.054 592.56 469.307 589.413 486.134C586.146 502.907 580.626 519.107 573.293 533.214" fill="#303030"/>
<path d="M376.333 412.64C370.853 412.92 370.173 448.733 374.253 484.266C376.24 502.026 379.467 519.693 383.133 532.706C386.84 545.746 390.92 554.013 393.52 553.4C396.227 552.76 396.173 543.76 395.213 530.586C394.28 517.386 392.44 499.933 390.493 482.426C386.466 447.426 381.733 412.36 376.333 412.64Z" fill="#303030"/>
<path d="M442.84 553.4C453.72 553.147 450.547 412.4 439.653 412.64C428.76 412.893 431.947 553.64 442.84 553.4Z" fill="#303030"/>
<path d="M492.946 482.613C491.32 500.08 489.547 517.48 488.653 530.64C487.747 543.813 487.627 552.706 490.24 553.4C492.893 554.106 497.08 545.786 500.72 532.76C504.373 519.733 507.546 502.013 509.213 484.186C512.773 448.48 510.226 412.64 504.88 412.64C499.333 412.613 496.44 447.76 492.946 482.613" fill="#303030"/>
<path d="M415.267 124.56C375.733 122.107 375.48 184.627 372.933 240.68C369.227 321.987 369.093 359.174 369.093 359.174L450.72 353.734C450.72 353.734 450.547 306.494 448.107 237.814C446.44 191.227 444.96 126.4 415.267 124.56" fill="white"/>
<path d="M448.973 153.374C447.067 145.867 444.653 138.2 440.333 130.667C438.16 126.92 435.44 123.16 431.613 119.92C427.88 116.68 422.8 114.16 417.547 113.454C416.253 113.334 414.933 113.2 413.653 113.16L410.067 113.307C407.667 113.587 405.213 113.96 402.853 114.787C398.093 116.307 393.76 119.027 390.32 122.254C386.813 125.48 384.253 129.174 382.107 132.867C379.947 136.587 378.333 140.36 376.947 144.12C374.227 151.654 372.48 159.147 371.187 166.494C369.893 173.854 369.013 181.08 368.36 188.174C367.053 202.347 366.573 215.934 366.227 228.76C365.947 241.547 365.693 253.627 365.453 264.774C364.72 309.387 365.36 339.214 368.08 339.374C370.8 339.534 374.24 309.92 377.693 265.36C378.573 254.24 379.427 242.134 380.253 229.414C381.107 216.694 382.013 203.347 383.6 189.774C385.24 176.28 387.36 162.227 392.027 149.734C393.2 146.64 394.533 143.654 396.12 141.014C397.68 138.36 399.427 135.92 401.427 134.147C403.4 132.347 405.52 131.08 407.84 130.334C408.987 129.907 410.24 129.747 411.52 129.587L413.507 129.494C414.08 129.534 414.613 129.614 415.173 129.627C417.307 129.934 419.187 130.8 421.08 132.4C422.973 133.96 424.747 136.254 426.28 138.894C429.4 144.214 431.653 150.72 433.387 157.36C436.84 170.734 438.533 184.827 439.827 198.454C441.067 212.134 441.787 225.507 442.48 238.254C443.16 251 443.8 263.04 444.387 274.16C446.733 318.654 448.24 348.347 450.96 348.4C453.693 348.467 456.267 318.654 456.64 273.894C456.733 262.707 456.72 250.587 456.507 237.774C456.32 224.96 456.04 211.387 455.107 197.254C454.093 183.12 452.667 168.427 448.973 153.374" fill="#303030"/>
<path d="M449.467 368.8L527.507 360.106C527.507 360.106 525.32 314.826 520.013 249.093C516.413 204.52 512.2 142.44 483.653 141.933C445.613 141.266 448.067 201.213 448.04 255.053C447.987 333.147 449.467 368.8 449.467 368.8" fill="white"/>
<path d="M526.013 214.894C524.64 201.627 522.813 187.867 519.307 173.827C517.48 166.814 515.307 159.707 511.84 152.64C510.12 149.12 508.053 145.587 505.307 142.214C502.573 138.88 499.08 135.627 494.573 133.4C490.16 131.134 484.667 130.307 480.12 130.774C475.627 131.107 470.88 132.36 466.773 134.774C462.653 137.147 459.267 140.4 456.64 143.827C453.973 147.28 452.067 150.934 450.533 154.547C447.413 161.814 445.813 169.027 444.587 176.067C443.4 183.107 442.747 190.014 442.32 196.747C441.493 210.214 441.587 223.067 441.787 235.174C442.027 247.294 442.373 258.614 442.707 269.16C444.04 311.214 446.653 339.414 449.773 339.24C452.093 339.107 453.573 311.214 454.96 269.147C455.32 258.654 455.56 247.187 455.84 235.214C456.133 223.227 456.48 210.64 457.6 197.894C458.16 191.52 458.933 185.107 460.12 178.827C461.307 172.587 462.866 166.36 465.28 160.96C467.613 155.467 470.946 151.134 474.813 148.934C476.733 147.787 478.946 147.227 481.413 147.04C483.826 146.854 485.493 147.174 487.346 148.054C490.96 149.8 494.6 154.36 497.253 159.867C499.987 165.334 502.027 171.574 503.733 177.88C507.08 190.6 509.133 203.787 510.787 216.627C512.413 229.48 513.626 242.08 514.813 254.054C515.973 266.014 517.08 277.32 518.093 287.774C522.12 329.56 524.787 357.467 527.507 357.4C530.24 357.347 531.653 329.174 530.32 286.987C530 276.454 529.493 265.027 528.813 252.96C528.133 240.907 527.333 228.16 526.013 214.894" fill="#303030"/>
<path d="M534.987 293.08C523.813 361.68 520.013 393.214 520.013 393.214L589.8 396.667C589.8 396.667 590.653 357.574 595.373 299.067C598.573 259.387 607.413 203.28 582.413 198.774C549.107 192.787 542.707 245.787 534.987 293.08" fill="white"/>
<path d="M599.08 377.387C599.173 376.16 599.253 374.92 599.346 373.653C600.706 353.6 601.867 330.387 604 305.627C605.027 293.28 606.467 280.427 607.44 267.133C608.373 253.84 609.093 240.187 607.773 225.973C607.44 222.427 606.933 218.827 606.146 215.173C605.333 211.52 604.333 207.813 602.64 204.053C600.947 200.32 598.586 196.427 594.893 193.16C591.253 189.867 586.053 187.827 581.48 187.427C577.2 186.907 572.466 187.413 568.226 189.013C563.96 190.573 560.32 193.133 557.387 195.933C554.44 198.747 552.133 201.827 550.226 204.92C548.266 208.013 546.693 211.147 545.333 214.267C539.933 226.76 537.226 238.947 534.946 250.44C532.733 261.933 531.24 272.773 529.946 282.733C524.96 322.573 523.026 349.293 525.68 349.693C528.413 350.12 534.387 324.013 542.04 284.72C544 274.92 546.066 264.347 548.68 253.387C551.32 242.507 554.4 231.013 559.267 220.627C560.48 218.04 561.827 215.547 563.32 213.307C564.8 211.027 566.44 209 568.2 207.413C571.773 204.2 575.28 202.867 579.733 203.427C581.68 203.68 582.906 204.2 584.213 205.346C585.493 206.493 586.746 208.347 587.76 210.667C589.8 215.373 590.933 221.427 591.507 227.573C592.68 240 592.147 253.133 591.387 266.053C590.613 278.987 589.427 291.893 588.72 304.52C587.227 329.707 587.093 353.253 587.093 373.227C587.093 374.467 587.093 375.693 587.093 376.92V378.76L587.173 380.96C587.36 383.8 587.8 386.28 588.267 388.64C589.227 393.347 590.347 397.56 591.387 401.507C593.493 409.386 595.293 416.107 596.573 421.693C599.227 432.827 599.706 439.386 601.146 439.506C602.413 439.653 604.373 432.747 603.653 420.707C603.347 414.72 602.4 407.507 601.133 399.467C600.507 395.44 599.8 391.2 599.293 386.88C599.053 384.746 598.866 382.573 598.893 380.613L598.946 379.2L599.08 377.387" fill="#303030"/>
<path d="M291.853 161.493C252.667 167.293 265.4 228.48 274.533 283.827C287.787 364.107 298.653 425.92 298.653 425.92L374.093 378.253C374.093 378.253 364.133 332.093 347.48 265.427C336.187 220.213 321.28 157.133 291.853 161.493Z" fill="white"/>
<path d="M275.84 186.28C276.573 183.2 277.48 180.253 278.653 177.613C281.147 172.386 284.48 168.88 289.187 167.293C291.773 166.466 293.84 166.16 295.867 166.493C297.893 166.813 300 167.76 302.12 169.32C306.4 172.426 310.293 177.626 313.573 183.106C316.907 188.626 319.68 194.666 322.24 200.693C327.307 212.826 331.28 225.186 334.853 237.013C338.413 248.84 341.507 260.186 344.48 270.68C356.387 312.64 364.76 340.4 367.227 339.906C370.093 339.32 365.653 310.36 356.373 267.72C354.067 257.066 351.52 245.48 348.387 233.24C345.227 221.013 341.547 208.12 336.44 194.96C333.853 188.386 330.973 181.72 327.173 175.146C323.347 168.626 318.92 161.92 311.707 156.4C308.12 153.693 303.613 151.373 298.52 150.52C297.253 150.28 295.987 150.12 294.693 150.146C293.4 150.093 292.12 150.12 290.88 150.32C289.6 150.453 288.347 150.64 287.267 150.96C286.133 151.266 285.013 151.48 283.893 151.893C279.387 153.346 275.067 156.08 271.653 159.44C268.213 162.826 265.68 166.786 263.813 170.773C260.227 178.8 258.867 186.84 258.2 194.573C257.52 202.346 257.653 209.88 258.067 217.28C258.92 232.053 261 246.2 263.227 259.76C267.8 286.813 272.813 311.653 277.187 333.106C285.987 375.893 292.96 404.173 295.64 403.653C298.307 403.133 295.36 374.12 289.253 330.986C286.067 309.466 282.36 284.346 278.373 257.44C276.507 244.066 274.76 230.28 274.133 216.466C273.827 209.573 273.787 202.666 274.413 196C274.68 192.653 275.213 189.426 275.84 186.28" fill="#303030"/>
<path d="M285.16 411.4C284.693 411.36 284.32 411.227 283.88 411.013C283 410.693 281.44 409.84 280.173 409.147C277.453 407.48 274.653 405.56 271.84 403.347C266.2 398.973 260.453 393.947 254.56 388.733C248.653 383.453 242.587 378.027 236.387 372.493C233.24 369.72 230.067 366.92 226.867 364.107C225.227 362.68 223.733 361.307 221.92 359.84C220.107 358.387 218.346 356.84 216.36 355.507C208.706 349.96 199.613 345.387 189.387 343.493C179.227 341.507 168 342.733 158.213 347.333C153.32 349.627 148.786 352.72 144.826 356.507C140.88 360.307 137.426 364.747 135.026 370.093C132.666 375.36 131.093 381.747 132.667 388.747C133.013 390.467 133.733 392.187 134.48 393.813L136.546 397.4C137.226 398.64 138 399.653 138.773 400.72C139.547 401.76 140.293 402.88 141.093 403.853C147.493 411.733 154.4 418.16 161.12 424.547C167.84 430.893 174.507 437.04 180.853 443.32C193.533 455.853 205.107 468.853 214.64 482.627C215.84 484.347 217.04 486.08 218.226 487.787C219.453 489.587 220.68 491.373 221.893 493.16C224.293 496.747 226.786 500.213 229.28 503.627C234.226 510.493 239.32 517.04 244.44 523.293C254.68 535.8 265.333 546.893 275.96 556.333C286.56 565.787 297.28 573.413 307.36 579.147C317.453 584.907 326.933 588.707 334.853 591.08C342.76 593.493 349.107 594.573 353.04 595.64C355.013 596.173 356.427 596.653 357.253 597.147C358.147 597.627 358.64 598.04 358.96 597.84C359.213 597.693 359.32 596.947 358.693 595.8C358.053 594.56 356.56 593.307 354.56 592.133C350.546 589.747 344.56 587.64 337.346 584.373C330.12 581.16 321.64 576.787 312.6 570.68C303.56 564.587 293.92 556.827 284.293 547.347C274.666 537.893 264.893 526.907 255.426 514.533C250.68 508.347 245.933 501.893 241.32 495.12C239 491.747 236.653 488.32 234.4 484.787C233.253 483.027 232.106 481.267 230.96 479.493C229.733 477.653 228.506 475.813 227.28 473.973C217.386 459.053 205.24 445.053 192.2 431.92C185.693 425.347 178.933 419.027 172.307 412.72C165.72 406.44 159.133 400.16 153.893 393.693C153.226 392.88 152.693 392.067 152.093 391.267C151.506 390.453 150.867 389.653 150.467 388.84L149.053 386.453C148.88 385.947 148.653 385.56 148.56 385.013C148.026 382.96 148.467 379.827 149.867 376.773C152.627 370.56 158.506 365.04 165.08 361.88C171.746 358.693 179.307 357.707 186.64 359.027C194 360.267 201.12 363.573 207.533 368.04C209.187 369.08 210.693 370.36 212.253 371.547C213.8 372.747 215.493 374.227 217.093 375.547C220.333 378.267 223.547 380.96 226.72 383.627C233.107 389.013 239.346 394.267 245.426 399.387C251.586 404.493 257.64 409.44 263.987 413.973C267.133 416.253 270.48 418.373 274 420.307C275.933 421.253 277.52 422.093 280 422.907C281.373 423.52 282.947 423.573 284.4 423.813C285.133 423.88 285.893 424.107 286.6 424.027L288.733 423.853C291.613 423.813 294.04 421.827 295.56 419.6C297.093 417.293 297.907 414.453 298.333 411.653C298.893 407.64 298.84 404.253 298.72 400.88C298.413 394.227 297.613 388.173 296.733 382.507C294.933 371.187 292.733 361.547 290.746 353.653C286.72 337.88 283.373 329.16 282.067 329.453C280.72 329.773 281.733 339 283.72 354.973C284.693 362.96 285.933 372.653 286.84 383.68C287.28 389.187 287.64 395.053 287.546 401.027C287.493 403.96 287.293 407.08 286.787 409.613C286.56 410.427 286.173 411.573 285.16 411.4" fill="#303030"/>
</svg>
