<svg width="131" height="145" viewBox="0 0 131 145" fill="none" xmlns="http://www.w3.org/2000/svg">
<path d="M45.12 3.5H32.56C30.9129 3.49869 29.2816 3.82215 27.7596 4.45188C26.2376 5.08161 24.8547 6.00525 23.69 7.16996C22.5253 8.33466 21.6016 9.71758 20.9719 11.2396C20.3422 12.7616 20.0187 14.3929 20.02 16.04V122.68" stroke="#262626" stroke-width="7" stroke-linecap="round" stroke-linejoin="round"/>
<path d="M101.56 28.6003V22.7503V22.3203" stroke="#262626" stroke-width="7" stroke-linecap="round" stroke-linejoin="round"/>
<path d="M45.1201 3.5H114.12C115.767 3.5 117.398 3.82437 118.919 4.45456C120.44 5.08475 121.823 6.00844 122.987 7.17288C124.152 8.33733 125.075 9.71973 125.706 11.2411C126.336 12.7626 126.66 14.3932 126.66 16.04V22.75H101.56" stroke="#262626" stroke-width="7" stroke-linecap="round" stroke-linejoin="round"/>
<path d="M114.12 3.5C112.472 3.49869 110.84 3.822 109.317 4.45148C107.794 5.08096 106.409 6.00429 105.243 7.16874C104.077 8.33318 103.151 9.71597 102.519 11.2381C101.887 12.7602 101.561 14.3919 101.56 16.04V22.32" stroke="#262626" stroke-width="7" stroke-linecap="round" stroke-linejoin="round"/>
<path d="M89.0199 141.5C87.3744 141.498 85.7453 141.173 84.2256 140.542C82.7059 139.911 81.3254 138.987 80.1628 137.823C79.0002 136.658 78.0783 135.276 77.4498 133.755C76.8214 132.235 76.4986 130.605 76.4999 128.96V122.68H7.49988C6.66791 122.682 5.87077 123.014 5.28247 123.602C4.69418 124.19 4.3625 124.988 4.35987 125.82V128.96C4.35855 130.605 4.68137 132.235 5.30985 133.755C5.93833 135.276 6.86018 136.658 8.02277 137.823C9.18536 138.987 10.5659 139.911 12.0856 140.542C13.6053 141.173 15.2344 141.498 16.8799 141.5H89.0199ZM89.0199 141.5C90.6671 141.501 92.2983 141.177 93.8203 140.548C95.3423 139.918 96.7253 138.994 97.89 137.83C99.0547 136.665 99.9783 135.282 100.608 133.76C101.238 132.238 101.561 130.607 101.56 128.96V28.5996" stroke="#262626" stroke-width="7" stroke-linecap="round" stroke-linejoin="round"/>
</svg>
