<svg width="103" height="151" viewBox="0 0 103 151" fill="none" xmlns="http://www.w3.org/2000/svg">
<path d="M99.1801 60.2002V108.2C99.1801 113.361 98.1635 118.472 96.1885 123.24C94.2135 128.008 91.3187 132.34 87.6694 135.989C84.02 139.639 79.6876 142.534 74.9195 144.509C70.1514 146.484 65.041 147.5 59.8801 147.5H43.1301C32.7071 147.5 22.711 143.36 15.3408 135.989C7.97061 128.619 3.83008 118.623 3.83008 108.2V60.8102" stroke="#262626" stroke-width="7" stroke-linecap="round" stroke-linejoin="round"/>
<path d="M3.83008 60.84V15.42C3.83008 12.2586 5.08593 9.22671 7.32137 6.99127C9.5568 4.75584 12.5887 3.5 15.7501 3.5C18.9097 3.50265 21.9391 4.75967 24.1723 6.99481C26.4056 9.22996 27.6601 12.2604 27.6601 15.42V60.84" stroke="#262626" stroke-width="7" stroke-linecap="round" stroke-linejoin="round"/>
<path d="M75.3398 60.84V15.42C75.3398 13.8547 75.6482 12.3046 76.2472 10.8584C76.8462 9.4122 77.7243 8.09815 78.8311 6.99127C79.938 5.8844 81.2521 5.00638 82.6983 4.40735C84.1445 3.80831 85.6945 3.5 87.2598 3.5V3.5C90.4212 3.5 93.4531 4.75584 95.6885 6.99127C97.924 9.22671 99.1798 12.2586 99.1798 15.42V60.84" stroke="#262626" stroke-width="7" stroke-linecap="round" stroke-linejoin="round"/>
<path d="M27.6602 73.0804V50.8604C27.6602 47.699 28.916 44.6671 31.1514 42.4317C33.3869 40.1963 36.4188 38.9404 39.5802 38.9404V38.9404C41.1459 38.9391 42.6965 39.2465 44.1433 39.8451C45.5901 40.4437 46.9047 41.3216 48.0118 42.4288C49.1189 43.5359 49.9969 44.8505 50.5955 46.2973C51.1941 47.7441 51.5015 49.2947 51.5002 50.8604V56.9804" stroke="#262626" stroke-width="7" stroke-linecap="round" stroke-linejoin="round"/>
<path d="M51.5 74.7804V50.8604C51.5 47.699 52.7559 44.6671 54.9913 42.4317C57.2267 40.1963 60.2586 38.9404 63.42 38.9404V38.9404C64.9857 38.9391 66.5364 39.2465 67.9832 39.8451C69.4299 40.4437 70.7445 41.3216 71.8517 42.4288C72.9588 43.5359 73.8368 44.8505 74.4353 46.2973C75.0339 47.7441 75.3413 49.2947 75.34 50.8604V79.8604C75.34 81.4258 75.0317 82.9758 74.4326 84.422C73.8336 85.8682 72.9556 87.1823 71.8487 88.2892C70.7419 89.396 69.4278 90.274 67.9816 90.8731C66.5354 91.4721 64.9854 91.7804 63.42 91.7804V91.7804C61.0496 91.7973 58.729 91.1004 56.76 89.7804" stroke="#262626" stroke-width="7" stroke-linecap="round" stroke-linejoin="round"/>
<path d="M3.83008 87.0801C3.83008 83.367 5.30508 79.8061 7.93059 77.1806C10.5561 74.5551 14.117 73.0801 17.8301 73.0801H45.3801C48.5415 73.0801 51.5734 74.3359 53.8088 76.5714C56.0442 78.8068 57.3001 81.8387 57.3001 85.0001C57.3014 86.5658 56.994 88.1164 56.3954 89.5632C55.7968 91.01 54.9189 92.3246 53.8117 93.4317C52.7046 94.5389 51.39 95.4168 49.9432 96.0154C48.4964 96.614 46.9458 96.9214 45.3801 96.9201H26.8301" stroke="#262626" stroke-width="7" stroke-linecap="round" stroke-linejoin="round"/>
<path d="M40.5498 96.9199C43.9684 96.9199 47.2471 98.278 49.6644 100.695C52.0818 103.113 53.4398 106.391 53.4398 109.81V118.18" stroke="#262626" stroke-width="7" stroke-linecap="round" stroke-linejoin="round"/>
</svg>
