<svg width="794" height="794" viewBox="0 0 794 794" fill="none" xmlns="http://www.w3.org/2000/svg">
<path d="M397.171 0.0529119H397.108C177.975 0.0529119 0.431991 177.653 0.442658 396.746C0.431991 615.719 177.915 793.439 397.091 793.439H397.185C619.735 793.439 793.86 612.919 793.836 396.746C793.86 177.773 616.351 0.0529119 397.171 0.0529119" fill="#F7F8FA"/>
<path d="M572.115 548.654C580.86 533.414 587.288 515.587 590.836 497.32C594.256 479.027 594.807 460.467 593.924 443.294C593.107 434.734 592.639 426.427 591.123 418.734C590.467 414.88 589.825 411.12 589.205 407.48C588.545 403.707 587.527 400.16 586.561 396.84C585.669 393.88 584.727 391.08 583.76 388.414C583.521 387.307 583.257 386.16 583.013 384.987C582.509 382.587 581.909 380.08 581.056 377.507C577.967 367.16 572.92 355.054 563.527 343.934C558.7 338.494 552.64 333.414 545.253 329.987C537.911 326.534 529.263 325.04 521.007 325.987C519.521 326.147 518.043 326.4 516.573 326.694C516.541 326.574 516.516 326.467 516.484 326.347C515.984 324.6 515.284 322.787 514.588 320.84C513.719 318.96 512.903 316.92 511.729 314.92C509.555 310.84 506.399 306.667 502.307 302.854C498.205 299.054 492.953 295.787 487.049 293.774C481.131 291.774 474.776 290.934 468.404 291.334C462.011 291.68 455.344 293.307 449.319 296.414C447.481 297.4 445.768 298.534 444.115 299.747C442.551 295.92 440.417 291.974 437.631 288.067C434.271 283.36 429.668 278.787 423.899 275.414C418.172 271.974 411.372 269.92 404.571 269.347C397.825 268.814 390.757 269.32 383.955 271.747C377.172 274.094 371.021 278.227 366.251 283.16C365.113 284.44 363.828 285.627 362.864 286.987C361.889 288.334 360.92 289.68 359.955 291.014C359.017 292.36 358.328 293.8 357.524 295.174C356.749 296.56 355.959 297.934 355.411 299.36C355.311 299.587 355.235 299.8 355.139 300.027C351.592 296.347 347.131 292.96 341.799 290.56C335.159 287.494 327.507 286.227 319.776 286.574C312.027 286.894 303.491 289.2 296.481 294.147C289.411 299 284.044 305.747 280.191 312.76C276.243 319.814 273.864 327.214 272.024 334.454C271.599 336.28 271.177 338.08 270.755 339.88C270.449 341.68 270.143 343.48 269.841 345.254C269.159 348.827 268.899 352.334 268.496 355.787C268.031 361.04 267.771 366.08 267.647 370.92C259.299 374.48 249.367 379.507 238.467 387.92C231.941 393.054 224.976 399.52 219.145 408.734C216.249 413.32 213.703 418.694 212.245 424.8C211.531 427.84 210.989 431.04 210.893 434.32C210.86 435.12 210.781 436.04 210.8 436.734L210.847 438.84C210.881 440.254 210.917 441.68 210.953 443.107C211.389 454.614 213.025 466.387 215.815 477.96C218.552 489.574 222.857 500.827 227.816 511.467C238.055 532.68 252.057 550.854 266.248 564.294C280.396 577.88 294.464 586.854 304.485 592.774C308.151 594.694 311.285 596.214 313.88 597.36C313.153 598.267 312.457 599.254 311.808 600.32C310.548 602.32 309.629 604.787 309.088 607.44C308.692 610.32 308.687 612.6 309.037 615.16C309.303 617.694 310.095 620.254 311.091 622.747C312.211 625.16 313.565 627.56 315.273 629.627C318.621 633.867 322.844 637.2 327.312 639.854C336.304 645.16 346.287 648.307 356.541 650.667C377.115 655.214 399.081 656.494 420.869 656.547C442.656 656.507 464.621 655.227 485.196 650.694C495.451 648.347 505.433 645.227 514.429 639.934C518.901 637.294 523.137 634 526.497 629.774C528.221 627.734 529.579 625.334 530.719 622.92C531.737 620.44 532.533 617.88 532.825 615.347C533.029 614.08 533.101 612.84 533.091 611.614C533.163 610.467 533 609.014 532.825 607.667C532.341 604.987 531.417 602.52 530.183 600.507C529.331 599.067 528.38 597.84 527.401 596.694C532.039 593.747 537.036 590.134 542.065 585.614C552.553 576.467 563.435 563.934 572.115 548.654" fill="#A9BECE"/>
<path d="M309.333 604.867C309.333 633.453 356.883 642.96 415.54 642.96C474.197 642.96 521.748 633.453 521.748 604.867C521.748 583.813 474.197 566.76 415.54 566.76C356.883 566.76 309.333 583.813 309.333 604.867" fill="white"/>
<path d="M319.36 594.094C319.36 612.654 362.703 618.813 416.172 618.813C469.64 618.813 512.983 612.654 512.983 594.094C512.983 580.44 469.64 569.36 416.172 569.36C362.703 569.36 319.36 580.44 319.36 594.094Z" fill="#B8C7E6"/>
<path d="M321.26 590.853C325.42 586.84 330.197 583.973 334.056 581.64C341.924 577.027 346.864 574.613 346.417 573.227C346.048 572.027 340.453 572.107 331.128 575.12C326.5 576.72 320.847 578.84 314.901 583.187C311.961 585.387 308.861 588.133 306.4 592.213C305.141 594.213 304.221 596.68 303.681 599.333C303.284 602.2 303.279 604.48 303.631 607.04C303.893 609.587 304.688 612.133 305.685 614.627C306.803 617.053 308.157 619.453 309.865 621.52C313.213 625.76 317.436 629.093 321.905 631.733C330.896 637.053 340.877 640.187 351.136 642.547C371.708 647.107 393.673 648.387 415.461 648.427C437.249 648.387 459.213 647.12 479.787 642.587C490.044 640.227 500.027 637.107 509.023 631.827C513.492 629.173 517.729 625.893 521.091 621.667C522.812 619.613 524.172 617.213 525.312 614.813C526.329 612.32 527.128 609.773 527.417 607.24C527.621 605.973 527.696 604.72 527.683 603.493C527.755 602.347 527.591 600.907 527.42 599.547C526.935 596.88 526.008 594.413 524.775 592.387C522.339 588.28 519.248 585.507 516.312 583.307C510.375 578.933 504.728 576.787 500.099 575.187C490.776 572.16 485.181 572.08 484.811 573.28C484.363 574.667 489.301 577.08 497.16 581.707C501.016 584.04 505.781 586.92 509.924 590.947C511.977 592.933 513.855 595.227 514.896 597.613C516.016 600.053 515.995 601.947 515.336 605.173C514.167 610.893 509.357 615.893 502.128 619.587C494.965 623.293 486.068 625.787 476.667 627.587C457.741 631.107 436.584 632.067 415.464 632.093C394.345 632.067 373.189 631.08 354.268 627.56C344.871 625.747 335.981 623.253 328.833 619.52C321.636 615.8 316.849 610.813 315.724 605.053C315.351 603.653 315.295 601.96 315.292 601C315.437 599.867 315.641 598.693 316.236 597.507C317.299 595.133 319.196 592.84 321.26 590.853" fill="#303030"/>
<path d="M215.524 430.96C215.524 476.88 232.956 536.773 315.572 587.12L295.864 359.32C295.864 359.32 215.524 385.053 215.524 430.96" fill="white"/>
<path d="M226.475 421.387C227.279 417.707 228.804 414.2 230.743 410.933C234.583 404.387 239.819 398.827 245.037 394.16C255.579 384.8 265.809 378.547 273.645 373.6C289.593 363.907 296.784 359.36 295.864 356.613C295.441 355.28 292.989 354.64 288.289 355.12C283.591 355.614 276.631 357.2 267.312 360.72C258.063 364.36 246.253 369.627 233.059 379.8C226.533 384.933 219.568 391.413 213.739 400.627C210.841 405.213 208.296 410.587 206.836 416.693C206.124 419.733 205.581 422.92 205.484 426.213C205.453 427 205.372 427.933 205.391 428.627L205.439 430.72C205.475 432.134 205.509 433.56 205.544 435C205.981 446.493 207.617 458.28 210.408 469.854C213.143 481.467 217.451 492.707 222.409 503.36C232.647 524.574 246.649 542.747 260.841 556.187C274.987 569.76 289.057 578.747 299.079 584.667C309.461 590.08 315.837 592.587 316.553 591.4C317.289 590.187 312.333 585.413 303.619 578.2C295.273 570.493 283.151 560.2 271.243 546.307C259.26 532.507 247.763 515.094 239.451 495.654C235.453 485.894 231.951 475.747 229.771 465.333C227.539 454.96 226.217 444.467 225.827 434.254C225.793 432.974 225.759 431.707 225.727 430.454L225.672 428.573C225.653 427.96 225.723 427.56 225.737 427.054C225.76 425.12 226.084 423.227 226.475 421.387" fill="#303030"/>
<path d="M514.363 328.92C487.885 333.227 469.979 358.547 479.893 419.387L575.771 403.773C565.857 342.92 540.839 324.6 514.363 328.92Z" fill="white"/>
<path d="M577.605 376.88C577.101 374.48 576.5 371.973 575.648 369.387C572.557 359.053 567.513 346.946 558.12 335.813C553.292 330.386 547.232 325.293 539.844 321.88C532.503 318.413 523.856 316.933 515.599 317.88C507.481 318.76 499.497 321.56 492.732 326.413C485.967 331.226 480.987 337.88 477.809 344.56C474.585 351.28 472.792 358.093 471.967 364.44C471.757 366.026 471.492 367.586 471.36 369.133C471.276 370.666 471.197 372.173 471.117 373.653C470.893 376.627 471.008 379.466 471.108 382.173C471.16 383.533 471.211 384.853 471.26 386.146C471.399 387.44 471.533 388.68 471.664 389.906C471.961 392.333 472.167 394.653 472.56 396.787C473.403 401.04 474.091 404.747 475.031 407.72C476.893 413.68 478.549 416.907 479.893 416.693C481.237 416.467 481.94 412.867 482.129 406.853C482.213 403.853 482.476 400.227 482.496 396.12C482.535 394.067 482.743 391.893 482.833 389.613C482.884 388.48 482.937 387.306 482.991 386.106C483.112 384.933 483.235 383.72 483.361 382.493C483.595 380.027 483.787 377.466 484.273 374.906C484.472 373.613 484.675 372.293 484.88 370.96C485.124 369.64 485.481 368.346 485.771 367.013C486.92 361.68 488.804 356.373 491.437 351.56C494.059 346.747 497.567 342.546 501.984 339.573C506.339 336.6 511.793 334.733 517.363 334.12C522.817 333.52 528.248 334.373 533.252 336.546C538.263 338.706 542.828 342.147 546.817 346.16C554.64 354.48 560.141 364.613 564.148 373.627C565.235 375.853 566.119 378.08 566.94 380.2C567.76 382.333 568.677 384.32 569.357 386.253C570.696 390.133 572.123 393.48 573.156 396.293C575.253 401.92 577.068 405.107 578.412 404.893C579.755 404.68 580.295 401.08 580.156 394.84C580.104 391.72 579.552 387.986 578.977 383.68C578.681 381.533 578.107 379.28 577.605 376.88" fill="#303030"/>
<path d="M418.109 377.547C418.109 423.8 439.855 461.307 466.68 461.307C493.505 461.307 515.251 423.8 515.251 377.547C515.251 315.893 493.505 293.787 466.68 293.787C439.855 293.787 418.109 315.893 418.109 377.547Z" fill="white"/>
<path d="M511.077 318.227C510.576 316.493 509.876 314.68 509.18 312.733C508.312 310.853 507.495 308.813 506.321 306.813C504.145 302.733 500.989 298.56 496.899 294.746C492.797 290.946 487.547 287.666 481.643 285.666C475.721 283.653 469.369 282.827 462.996 283.227C456.603 283.573 449.936 285.2 443.912 288.306C437.912 291.493 432.873 296.08 428.891 301.04C427.961 302.32 427.036 303.6 426.115 304.866C425.219 306.146 424.559 307.52 423.789 308.827C422.193 311.44 421.156 314.173 420.015 316.813C415.792 327.506 414.417 337.746 413.839 346.373C412.971 363.706 415.571 374.853 418.109 374.84C420.999 374.866 422.56 363.746 425.976 348.08C427.784 340.32 430.057 331.306 434.084 322.88C435.148 320.84 436.091 318.653 437.412 316.76C438.047 315.813 438.587 314.747 439.287 313.853L441.393 311.16C444.347 307.747 447.695 304.826 451.508 302.773C455.363 300.813 459.625 299.68 464.092 299.28C468.587 298.826 473.087 299.227 477.076 300.293C485.136 302.387 491.503 307.706 496.073 313.533C497.264 314.946 498.221 316.493 499.263 317.88C500.196 319.373 501.079 320.787 501.909 322.12C502.68 323.507 503.432 324.813 504.159 326.013C504.803 327.266 505.427 328.413 506.028 329.453C508.343 333.613 510.068 336.066 511.433 335.746C512.72 335.453 513.325 332.466 512.863 327.346C512.723 326.08 512.529 324.666 512.28 323.133C511.94 321.626 511.539 319.987 511.077 318.227" fill="#303030"/>
<path d="M346.445 355.574C346.445 401.827 368.192 439.32 395.016 439.32C421.841 439.32 443.587 401.827 443.587 355.574C443.587 293.92 421.841 271.814 395.016 271.814C368.192 271.814 346.445 293.92 346.445 355.574Z" fill="white"/>
<path d="M418.492 267.294C412.764 263.867 405.964 261.8 399.164 261.24C392.419 260.707 385.352 261.214 378.547 263.64C371.763 265.987 365.612 270.107 360.844 275.054C359.705 276.334 358.42 277.52 357.457 278.88C356.481 280.227 355.512 281.574 354.547 282.907C353.609 284.254 352.92 285.694 352.117 287.067C351.341 288.454 350.552 289.827 350.003 291.254C344.963 302.507 343.204 313.414 342.409 322.587C341.248 341.014 343.921 352.881 346.445 352.867C349.347 352.881 350.847 341.041 354.528 324.427C356.525 316.201 359.161 306.707 363.745 298.027C368.253 289.281 375.18 282.107 383.893 279.08C388.211 277.494 393.151 277.054 397.94 277.28C402.703 277.534 407.141 278.681 411.047 280.694C418.937 284.614 424.572 292.027 428.481 299.067C432.428 306.174 434.865 312.907 436.915 317.574C438.817 322.307 440.431 325.04 441.795 324.84C443.127 324.667 443.876 321.561 443.921 316.161C443.797 310.774 442.948 303.041 439.636 293.987C438.051 289.467 435.587 284.681 432.221 279.961C428.863 275.241 424.26 270.681 418.492 267.294" fill="#303030"/>
<path d="M269.408 372.414C269.408 418.68 291.153 456.174 317.979 456.174C344.804 456.174 366.549 418.68 366.549 372.414C366.549 310.774 344.804 288.654 317.979 288.654C291.153 288.654 269.408 310.774 269.408 372.414Z" fill="white"/>
<path d="M415.537 329.227C326.091 329.227 253.581 365.547 253.581 474.774C253.581 555.16 326.091 620.32 415.537 620.32C515.485 620.32 599.691 545.4 575.771 403.774C568.016 357.854 495.656 329.227 415.537 329.227Z" fill="white"/>
<path d="M268.612 420.2V376.827C256.577 385.694 233.476 414.494 268.612 420.2Z" fill="#B8C7E6"/>
<path d="M336.391 282.454C329.751 279.387 322.099 278.107 314.367 278.467C306.619 278.787 298.084 281.08 291.075 286.04C284.003 290.88 278.636 297.64 274.781 304.654C270.836 311.694 268.457 319.107 266.617 326.347C266.193 328.16 265.769 329.974 265.349 331.774C265.041 333.574 264.737 335.36 264.432 337.147C263.752 340.72 263.489 344.227 263.088 347.68C261.86 361.574 262.047 374.04 262.461 384.854C263.405 406.414 265.959 420.614 268.612 420.56C271.404 420.507 272.94 406.24 274.716 385.107C275.645 374.6 276.517 362.134 278.3 349.507C278.836 346.36 279.211 343.107 279.951 339.947C280.276 338.347 280.604 336.747 280.932 335.134C281.347 333.574 281.763 331.987 282.183 330.414C283.931 324.147 286.051 317.907 289.1 312.534C292.087 307.107 295.823 302.467 300.261 299.24C304.661 295.947 309.909 294.307 315.407 293.76C320.963 293.2 326.429 293.747 331.068 295.454C335.759 297.094 339.829 299.76 343.177 302.934C349.88 309.374 353.837 317.04 356.691 322.334C358.14 325 359.276 327.16 360.24 328.614C361.224 330.054 362.069 330.774 362.732 330.614C363.396 330.467 363.797 329.467 363.952 327.667C364.129 325.88 364.031 323.307 363.473 320.08C362.339 313.694 359.824 304.24 352.216 294.654C348.401 289.947 343.036 285.44 336.391 282.454" fill="#303030"/>
<path d="M553.253 533.214C545.969 547.347 536.919 559.28 528.167 568.667C519.521 578.227 510.837 584.747 505.049 589.84C498.972 594.507 495.627 597.694 496.253 598.92C496.864 600.12 501.344 599.04 508.801 595.92C515.959 592.387 526.259 586.854 536.657 577.507C547.145 568.347 558.029 555.827 566.705 540.534C575.451 525.307 581.88 507.467 585.428 489.214C588.849 470.907 589.399 452.347 588.519 435.174C587.697 426.627 587.229 418.32 585.716 410.627C585.057 406.76 584.419 403.014 583.8 399.374C583.139 395.6 582.119 392.04 581.153 388.734C577.161 375.454 572.235 365.054 568.085 358.174C563.92 351.307 560.643 347.947 559.483 348.574C556.912 349.934 564.307 366.147 569.251 391.654C569.836 394.854 570.456 398.094 570.752 401.467C571.084 404.987 571.425 408.614 571.779 412.36C572.748 419.814 572.749 427.694 573.211 435.814C573.369 452.054 572.516 469.307 569.38 486.134C566.105 502.907 560.592 519.107 553.253 533.214" fill="#303030"/>
<path d="M356.297 412.64C350.812 412.92 350.131 448.733 354.211 484.266C356.197 502.026 359.432 519.693 363.1 532.706C366.803 545.746 370.883 554.013 373.477 553.4C376.183 552.76 376.132 543.76 375.172 530.586C374.239 517.386 372.409 499.933 370.449 482.426C366.428 447.426 361.695 412.36 356.297 412.64Z" fill="#303030"/>
<path d="M422.796 553.4C433.691 553.147 430.503 412.4 419.613 412.64C408.719 412.893 411.907 553.64 422.796 553.4Z" fill="#303030"/>
<path d="M472.904 482.613C471.279 500.08 469.515 517.48 468.611 530.64C467.708 543.813 467.589 552.706 470.203 553.4C472.857 554.106 477.041 545.786 480.684 532.76C484.329 519.733 487.511 502.013 489.172 484.186C492.743 448.48 490.196 412.64 484.839 412.64C479.303 412.613 476.399 447.76 472.904 482.613" fill="#303030"/>
</svg>
