<svg width="794" height="794" viewBox="0 0 794 794" fill="none" xmlns="http://www.w3.org/2000/svg">
<path d="M396.8 0.0529119C177.667 0.0529119 0.121301 177.653 0.133301 396.746C0.121301 615.719 177.6 793.439 396.773 793.439H396.88C619.427 793.439 793.547 612.919 793.52 396.746C793.547 177.773 616.04 0.0529119 396.853 0.0529119H396.8" fill="#F7F8FA"/>
<path d="M558.28 548.654C567.027 533.414 573.453 515.587 577 497.32C580.427 479.027 580.973 460.467 580.093 443.294C579.28 434.734 578.8 426.427 577.293 418.734C576.627 414.88 576 411.12 575.373 407.48C574.72 403.707 573.693 400.16 572.733 396.84C571.84 393.88 570.893 391.08 569.933 388.414C569.693 387.307 569.427 386.16 569.173 384.987C568.68 382.587 568.08 380.08 567.227 377.507C564.133 367.16 559.093 355.054 549.693 343.934C544.867 338.494 538.813 333.414 531.413 329.987C524.08 326.534 515.427 325.04 507.173 325.987C505.64 326.16 504.12 326.414 502.6 326.72C501.707 324.2 500.613 321.56 499.2 318.787C497.08 314.667 494.253 310.36 490.547 306.24C486.84 302.12 482.053 298.294 476.32 295.48C470.627 292.654 463.827 291.08 457.12 291.214C450.64 291.147 443.747 292.574 437.507 295.494C434.08 297.094 430.907 299.16 428.027 301.507C428.187 293.787 428.28 285.334 428.28 276.267C428.267 265.027 428.12 252.84 427.773 239.947C427.453 227.08 427.013 213.454 425.96 199.267C424.867 185.08 423.267 170.334 419.587 155.254C417.64 147.72 415.267 140.08 411.107 132.507C408.973 128.76 406.373 124.987 402.773 121.64C399.227 118.307 394.4 115.507 389.133 114.467C387.827 114.134 386.52 114.014 385.213 113.947C383.867 113.814 382.667 113.867 381.48 113.947C379.093 114.014 376.613 114.48 374.227 115.094C369.387 116.36 364.84 118.96 361.293 122.16C354.107 128.64 350.28 136.587 347.44 144.094C342.053 159.334 340.32 174.227 339.04 188.48C337.867 202.747 337.52 216.414 337.32 229.307C337.147 242.187 337.027 254.32 337.093 265.6C337.12 273.734 337.253 281.374 337.467 288.44C335.92 280.854 334.16 272.614 332.187 263.827C329.6 252.374 326.853 240.054 323.613 226.894C320.293 213.76 316.573 199.867 310.933 185.654C308.053 178.56 304.747 171.347 299.8 164.32C297.293 160.84 294.373 157.347 290.347 154.334C286.413 151.334 280.947 148.947 275.16 148.854C273.733 148.747 272.347 148.987 270.947 149.107C269.573 149.307 268.28 149.68 266.947 150C264.653 150.787 262.413 151.587 260.227 152.774C255.853 155.054 251.853 158.32 248.747 162.16C242.44 169.934 239.907 179.04 238.467 187.48C237.173 196.014 237.053 204.334 237.44 212.44C237.8 220.547 238.667 228.467 239.72 236.227C241.853 251.774 244.733 266.654 247.4 281.08C247.787 282.987 248 284.707 248.533 286.774C248.947 288.534 249.36 290.28 249.773 292.014C250.587 295.494 251.387 298.947 252.187 302.36C253.733 309.214 255.253 315.907 256.72 322.427C259.627 335.48 262.253 347.827 264.64 359.24C265.147 361.667 265.627 364.014 266.093 366.347C263.84 367.054 261.413 367.88 258.787 368.88C249.493 372.547 237.653 377.854 224.413 388.094C221.12 390.667 217.773 393.627 214.48 397.067C211.173 400.454 207.973 404.467 205.093 409.107C202.24 413.76 199.667 419.147 198.28 425.32C197.613 428.387 197.107 431.6 197.027 434.907C196.893 436.68 197.013 437.867 197.027 439.347C197.067 440.76 197.107 442.187 197.133 443.64C197.627 455.187 199.333 467 202.173 478.614C204.933 490.254 209.32 501.507 214.293 512.187C224.56 533.467 238.56 551.72 252.773 565.267C266.933 578.934 281.04 588 291.093 593.96C294.32 595.64 297.107 597.014 299.507 598.107C298.987 598.814 298.453 599.52 297.973 600.32C296.72 602.32 295.8 604.787 295.253 607.44C294.853 610.32 294.853 612.6 295.2 615.16C295.467 617.694 296.267 620.254 297.253 622.747C298.373 625.16 299.733 627.56 301.44 629.627C304.787 633.867 309.013 637.2 313.48 639.854C322.467 645.16 332.453 648.307 342.707 650.667C363.28 655.214 385.253 656.494 407.04 656.547C428.827 656.507 450.787 655.227 471.36 650.694C481.613 648.347 491.6 645.227 500.6 639.934C505.067 637.294 509.307 634 512.667 629.774C514.387 627.734 515.747 625.334 516.893 622.92C517.907 620.44 518.707 617.88 518.987 615.347C519.2 614.08 519.267 612.84 519.253 611.614C519.333 610.467 519.173 609.014 519 607.667C518.507 604.987 517.587 602.52 516.347 600.507C515.493 599.067 514.547 597.84 513.573 596.694C518.213 593.747 523.2 590.134 528.24 585.614C538.72 576.467 549.6 563.934 558.28 548.654" fill="#A9BECE"/>
<path d="M295.507 604.867C295.507 633.453 343.053 642.96 401.707 642.96C460.36 642.96 507.92 633.453 507.92 604.867C507.92 583.813 460.36 566.76 401.707 566.76C343.053 566.76 295.507 583.813 295.507 604.867Z" fill="white"/>
<path d="M304.613 594.094C304.613 611.987 348.147 617.934 401.867 617.934C455.587 617.934 499.133 611.987 499.133 594.094C499.133 580.92 455.587 570.24 401.867 570.24C348.147 570.24 304.613 580.92 304.613 594.094Z" fill="#B8C7E6"/>
<path d="M307.427 590.853C311.587 586.84 316.36 583.973 320.227 581.64C328.093 577.027 333.04 574.613 332.587 573.227C332.213 572.027 326.627 572.107 317.293 575.12C312.667 576.72 307.013 578.84 301.067 583.187C298.133 585.387 295.027 588.133 292.573 592.213C291.307 594.213 290.387 596.68 289.853 599.333C289.453 602.2 289.44 604.48 289.8 607.04C290.067 609.587 290.853 612.133 291.853 614.627C292.973 617.053 294.32 619.453 296.04 621.52C299.387 625.76 303.6 629.093 308.067 631.733C317.067 637.053 327.053 640.187 337.307 642.547C357.88 647.107 379.84 648.387 401.627 648.427C423.413 648.387 445.387 647.12 465.96 642.587C476.213 640.227 486.187 637.107 495.187 631.827C499.667 629.173 503.893 625.893 507.253 621.667C508.987 619.613 510.333 617.213 511.48 614.813C512.493 612.32 513.293 609.773 513.587 607.24C513.787 605.973 513.867 604.72 513.853 603.493C513.92 602.347 513.76 600.907 513.587 599.547C513.107 596.88 512.173 594.413 510.947 592.387C508.507 588.28 505.413 585.507 502.48 583.307C496.547 578.933 490.893 576.787 486.267 575.187C476.947 572.16 471.347 572.08 470.973 573.28C470.533 574.667 475.467 577.08 483.333 581.707C487.187 584.04 491.947 586.92 496.093 590.947C498.147 592.933 500.027 595.227 501.067 597.613C502.187 600.053 502.16 601.947 501.507 605.173C500.333 610.893 495.52 615.893 488.293 619.587C481.133 623.293 472.24 625.787 462.84 627.587C443.907 631.107 422.747 632.067 401.627 632.093C380.507 632.067 359.36 631.08 340.44 627.56C331.04 625.747 322.147 623.253 315 619.52C307.8 615.8 303.013 610.813 301.893 605.053C301.52 603.653 301.467 601.96 301.467 601C301.6 599.867 301.813 598.693 302.4 597.507C303.467 595.133 305.36 592.84 307.427 590.853" fill="#303030"/>
<path d="M201.693 430.96C201.693 476.88 219.12 536.773 301.733 587.12L282.04 359.32C282.04 359.32 201.693 385.053 201.693 430.96" fill="white"/>
<path d="M212.56 421.694C213.32 417.987 214.88 414.48 216.76 411.2C220.547 404.614 225.8 399.014 231.013 394.32C241.586 384.907 251.84 378.614 259.72 373.64C275.733 363.907 282.947 359.36 282.027 356.614C281.613 355.28 279.147 354.64 274.427 355.134C269.72 355.627 262.733 357.227 253.373 360.774C244.093 364.427 232.24 369.747 219 379.987C215.707 382.56 212.36 385.507 209.08 388.947C205.76 392.347 202.573 396.36 199.68 401C196.84 405.654 194.267 411.04 192.867 417.2C192.2 420.28 191.707 423.48 191.627 426.787C191.493 428.56 191.613 429.76 191.627 431.227C191.653 432.654 191.693 434.08 191.733 435.52C192.213 447.08 193.92 458.894 196.773 470.494C199.52 482.134 203.906 493.4 208.88 504.08C219.16 525.347 233.16 543.614 247.36 557.16C261.533 570.827 275.627 579.894 285.693 585.84C296.107 591.307 302.507 593.814 303.227 592.627C303.96 591.414 298.973 586.64 290.24 579.387C281.853 571.654 269.72 561.28 257.787 547.307C245.8 533.414 234.28 515.894 225.92 496.36C221.893 486.547 218.307 476.36 216.12 465.907C213.827 455.48 212.44 444.96 212.013 434.707C211.973 433.414 211.946 432.147 211.906 430.894C211.893 429.694 211.773 428.24 211.88 427.387C211.906 425.44 212.2 423.56 212.56 421.694" fill="#303030"/>
<path d="M500.533 328.92C474.053 333.227 456.147 358.547 466.067 419.387L561.933 403.773C552.027 342.92 527 324.6 500.533 328.92Z" fill="white"/>
<path d="M563.773 376.88C563.267 374.48 562.667 371.973 561.813 369.387C558.72 359.053 553.68 346.946 544.28 335.813C539.453 330.386 533.4 325.293 526.013 321.88C518.667 318.413 510.027 316.933 501.773 317.88C493.653 318.76 485.667 321.56 478.893 326.413C472.133 331.226 467.16 337.88 463.973 344.56C460.747 351.28 458.96 358.093 458.133 364.44C457.92 366.026 457.653 367.586 457.52 369.133C457.44 370.666 457.36 372.173 457.28 373.653C457.053 376.627 457.173 379.466 457.28 382.173C457.333 383.533 457.373 384.853 457.427 386.146C457.56 387.44 457.707 388.68 457.84 389.906C458.133 392.333 458.333 394.653 458.733 396.787C459.573 401.04 460.253 404.747 461.2 407.72C463.067 413.68 464.72 416.907 466.067 416.693C467.4 416.467 468.107 412.867 468.293 406.853C468.387 403.853 468.64 400.227 468.667 396.12C468.707 394.067 468.907 391.893 469 389.613C469.053 388.48 469.107 387.306 469.16 386.106C469.28 384.933 469.4 383.72 469.533 382.493C469.76 380.027 469.947 377.466 470.44 374.906C470.64 373.613 470.84 372.293 471.053 370.96C471.293 369.64 471.653 368.346 471.933 367.013C473.093 361.68 474.973 356.373 477.6 351.56C480.227 346.747 483.733 342.546 488.147 339.573C492.507 336.6 497.96 334.733 503.533 334.12C508.987 333.52 514.413 334.373 519.413 336.546C524.427 338.706 529 342.147 532.987 346.16C540.813 354.48 546.307 364.613 550.32 373.627C551.4 375.853 552.28 378.08 553.107 380.2C553.933 382.333 554.84 384.32 555.52 386.253C556.867 390.133 558.293 393.48 559.32 396.293C561.427 401.92 563.24 405.107 564.573 404.893C565.92 404.68 566.467 401.08 566.32 394.84C566.28 391.72 565.72 387.986 565.147 383.68C564.853 381.533 564.28 379.28 563.773 376.88" fill="#303030"/>
<path d="M404.28 377.547C404.28 423.8 426.027 461.307 452.853 461.307C479.667 461.307 501.413 423.8 501.413 377.547C501.413 315.893 479.667 293.787 452.853 293.787C426.027 293.787 404.28 315.893 404.28 377.547Z" fill="white"/>
<path d="M485.133 298.12C481.426 294 476.64 290.173 470.92 287.373C465.227 284.533 458.413 282.96 451.706 283.093C445.226 283.04 438.333 284.467 432.106 287.387C425.866 290.293 420.36 294.68 416.146 299.693C415.093 300.933 414.213 302.28 413.253 303.56L411.867 305.506L410.72 307.533C409.96 308.893 409.213 310.227 408.48 311.56C407.88 312.933 407.293 314.307 406.72 315.653C402.227 326.52 400.733 336.987 400.08 345.787C399.12 363.48 401.746 374.853 404.28 374.84C407.173 374.866 408.706 363.506 412.213 347.533C414.08 339.626 416.48 330.466 420.68 321.946C421.213 320.893 421.733 319.827 422.28 318.76C422.893 317.773 423.52 316.787 424.16 315.787L425.08 314.28L426.16 312.906C426.893 312.026 427.56 311.053 428.333 310.2C431.4 306.786 435 304.093 438.987 302.213C442.973 300.346 447.4 299.266 452.053 299.173C456.467 298.96 460.653 299.707 464.587 301.32C472.507 304.48 478.746 310.92 483.333 317.066C487.92 323.32 491.04 329.373 493.36 333.64C495.707 337.906 497.44 340.4 498.813 340.093C500.093 339.8 500.693 336.746 500.187 331.546C499.707 326.346 498 318.973 493.8 310.68C491.666 306.56 488.84 302.253 485.133 298.12" fill="#303030"/>
<path d="M263.84 152.32C227.48 163.747 241.133 225.133 250.227 278.307C263.4 355.427 272.64 427.573 272.64 427.573L348.067 360.853C348.067 360.853 331.733 312.173 315.36 248.16C304.253 204.747 292.453 143.333 263.84 152.32" fill="white"/>
<path d="M379.68 117.12C340.107 115.12 340.6 177.627 338.707 233.693C335.96 315.013 336.267 352.187 336.267 352.187L417.813 345.8C417.813 345.8 417.093 298.587 413.84 229.96C411.627 183.4 409.387 118.627 379.68 117.12" fill="white"/>
<path d="M401.707 329.227C312.253 329.227 239.747 365.547 239.747 474.774C239.747 555.16 312.253 620.32 401.707 620.32C501.653 620.32 585.853 545.4 561.933 403.774C554.187 357.854 481.827 329.227 401.707 329.227Z" fill="white"/>
<path d="M539.427 533.214C532.133 547.347 523.08 559.28 514.333 568.667C505.693 578.227 497 584.747 491.213 589.84C485.147 594.507 481.8 597.694 482.413 598.92C483.027 600.12 487.507 599.04 494.973 595.92C502.133 592.387 512.427 586.854 522.827 577.507C533.32 568.347 544.2 555.827 552.88 540.534C561.613 525.307 568.053 507.467 571.6 489.214C575.013 470.907 575.56 452.347 574.68 435.174C573.867 426.627 573.4 418.32 571.88 410.627C571.227 406.76 570.587 403.014 569.973 399.374C569.307 395.6 568.28 392.04 567.32 388.734C563.333 375.454 558.4 365.054 554.253 358.174C550.08 351.307 546.813 347.947 545.653 348.574C543.08 349.934 550.48 366.147 555.413 391.654C556 394.854 556.627 398.094 556.92 401.467C557.253 404.987 557.6 408.614 557.947 412.36C558.92 419.814 558.92 427.694 559.373 435.814C559.533 452.054 558.68 469.307 555.547 486.134C552.28 502.907 546.76 519.107 539.427 533.214" fill="#303030"/>
<path d="M342.467 412.64C336.987 412.92 336.293 448.733 340.387 484.266C342.373 502.026 345.6 519.693 349.267 532.706C352.973 545.746 357.053 554.013 359.64 553.4C362.347 552.76 362.293 543.76 361.347 530.586C360.4 517.386 358.573 499.933 356.613 482.426C352.6 447.426 347.867 412.36 342.467 412.64" fill="#303030"/>
<path d="M408.96 553.4C419.853 553.147 416.667 412.4 405.787 412.64C394.893 412.893 398.067 553.64 408.96 553.4Z" fill="#303030"/>
<path d="M459.067 482.613C457.44 500.08 455.68 517.48 454.773 530.64C453.88 543.813 453.76 552.706 456.373 553.4C459.027 554.106 463.213 545.786 466.853 532.76C470.493 519.733 473.68 502.013 475.333 484.186C478.907 448.48 476.36 412.64 471.013 412.64C465.467 412.613 462.56 447.76 459.067 482.613" fill="#303030"/>
<path d="M273.667 427.36L266.387 370.387C254.347 379.254 208.747 409.974 273.667 427.36Z" fill="#B8C7E6"/>
<path d="M256 164.28C257.773 162.066 259.893 160.32 262.36 159C263.573 158.306 264.973 157.813 266.307 157.306C266.867 157.213 267.427 157.013 267.947 156.92C268.467 156.933 268.987 156.746 269.48 156.826C271.4 156.853 273.333 157.52 275.493 159.053C277.613 160.573 279.72 162.866 281.627 165.466C285.467 170.693 288.627 177.026 291.373 183.413C296.853 196.293 300.907 209.693 304.64 222.44C308.28 235.306 311.72 247.493 314.893 258.733C327.773 303.733 336.453 333.666 339.013 333.146C341.787 332.573 337.053 301.493 326.773 255.72C324.187 244.267 321.453 231.947 318.2 218.787C314.88 205.653 311.173 191.76 305.52 177.546C302.64 170.453 299.347 163.24 294.387 156.213C291.893 152.72 288.96 149.226 284.947 146.226C281 143.226 275.547 140.826 269.76 140.733C268.32 140.64 266.947 140.88 265.533 140.987C264.173 141.2 262.867 141.56 261.547 141.88C259.24 142.68 257 143.48 254.813 144.666C250.44 146.933 246.44 150.2 243.347 154.04C237.027 161.826 234.493 170.92 233.067 179.373C231.773 187.906 231.653 196.227 232.027 204.32C232.387 212.44 233.253 220.36 234.307 228.12C236.44 243.667 239.333 258.533 242 272.973C242.373 274.88 242.6 276.6 243.133 278.666C243.547 280.413 243.96 282.16 244.373 283.906C245.173 287.386 245.987 290.84 246.773 294.253C248.32 301.107 249.84 307.8 251.32 314.32C254.227 327.36 256.853 339.72 259.24 351.133C263.96 373.96 267.52 393.04 269.747 406.4C272.027 419.746 272.933 427.453 274.387 427.506C275.653 427.573 277.147 419.613 276.867 405.746C276.64 391.893 274.72 372.293 271.307 349C269.573 337.36 267.507 324.773 265.08 311.533C263.853 304.906 262.573 298.106 261.2 291.16C260.493 287.693 259.787 284.2 259.067 280.653C258.693 278.88 258.32 277.106 257.947 275.32C257.587 273.867 257.373 271.946 257.08 270.266C254.76 255.853 252.133 240.973 250.267 226.04C249.333 218.56 248.573 211.053 248.293 203.626C247.973 196.2 248.16 188.84 249.2 181.92C250.333 175.08 252.387 168.653 256 164.28" fill="#303030"/>
<path d="M414.187 147.147C412.24 139.614 409.867 131.96 405.693 124.4C403.573 120.64 400.973 116.88 397.373 113.534C393.813 110.2 389 107.4 383.733 106.347C382.413 106.014 381.12 105.907 379.813 105.827C378.453 105.694 377.253 105.76 376.067 105.84C373.68 105.894 371.213 106.36 368.813 106.974C363.987 108.254 359.44 110.84 355.893 114.054C348.693 120.534 344.867 128.467 342.027 135.987C336.64 151.214 334.907 166.12 333.627 180.374C332.453 194.64 332.107 208.307 331.907 221.2C331.733 234.08 331.627 246.214 331.68 257.494C331.787 280 332.587 298.787 334 311.947C335.32 325.08 337.64 332.654 339.12 332.32C340.307 332.04 340.427 324.774 341.147 311.734C341.827 298.707 342.787 280.107 343.933 257.8C344.56 246.614 345.24 234.494 345.947 221.694C346.653 208.907 347.427 195.48 348.88 181.827C350.387 168.254 352.453 154.147 357.093 141.614C359.453 135.454 362.613 129.774 366.627 126.28C368.613 124.52 370.747 123.334 373.16 122.72C375.493 122.107 378.507 121.934 380.427 122.36C382.507 122.787 384.413 123.8 386.307 125.547C388.2 127.28 389.96 129.667 391.507 132.374C394.6 137.867 396.813 144.454 398.6 151.134C402.067 164.64 403.907 178.774 405.28 192.48C406.653 206.227 407.507 219.68 408.333 232.48C409.147 245.28 409.907 257.374 410.613 268.534C413.373 313.227 415.093 343.067 417.813 343.094C420.533 343.134 422.907 313.147 422.867 268.16C422.853 256.907 422.707 244.72 422.373 231.84C422.04 218.974 421.613 205.347 420.547 191.16C419.453 176.974 417.853 162.227 414.187 147.147" fill="#303030"/>
</svg>
