<svg width="125" height="151" viewBox="0 0 125 151" fill="none" xmlns="http://www.w3.org/2000/svg">
<path d="M64.3203 101.68L75.5903 114.77" stroke="#262626" stroke-width="7" stroke-linecap="round" stroke-linejoin="round"/>
<path d="M62.5001 64.04L15.1201 3.5C6.8601 18.67 9.0301 38.09 20.3701 50.6L47.4301 82.05" stroke="#262626" stroke-width="7" stroke-linecap="round" stroke-linejoin="round"/>
<path d="M91.9503 101.68L78.8604 84.9502" stroke="#262626" stroke-width="7" stroke-linecap="round" stroke-linejoin="round"/>
<path d="M34.6802 101.68L111.51 3.5C119.77 18.67 117.6 38.09 106.26 50.6L49.4102 118.05" stroke="#262626" stroke-width="7" stroke-linecap="round" stroke-linejoin="round"/>
<path d="M64.13 80.4102C64.4548 80.4082 64.7728 80.5027 65.0439 80.6817C65.3149 80.8607 65.5266 81.1161 65.6523 81.4156C65.7779 81.7151 65.8119 82.0452 65.7497 82.364C65.6876 82.6827 65.5321 82.9759 65.3032 83.2063C65.0742 83.4366 64.7821 83.5938 64.4637 83.6579C64.1453 83.722 63.815 83.6901 63.5147 83.5663C63.2145 83.4425 62.9578 83.2323 62.7771 82.9623C62.5965 82.6924 62.5 82.375 62.5 82.0502C62.4987 81.8353 62.5399 81.6223 62.6212 81.4233C62.7025 81.2244 62.8224 81.0436 62.9738 80.8911C63.1253 80.7387 63.3055 80.6178 63.5039 80.5352C63.7024 80.4527 63.9151 80.4102 64.13 80.4102Z" stroke="#262626" stroke-width="7" stroke-linecap="round" stroke-linejoin="round"/>
<path d="M26.5001 147.5C39.153 147.5 49.4101 137.243 49.4101 124.59C49.4101 111.937 39.153 101.68 26.5001 101.68C13.8473 101.68 3.59009 111.937 3.59009 124.59C3.59009 137.243 13.8473 147.5 26.5001 147.5Z" stroke="#262626" stroke-width="7" stroke-linecap="round" stroke-linejoin="round"/>
<path d="M26.5002 134.41C31.9236 134.41 36.3202 130.013 36.3202 124.59C36.3202 119.166 31.9236 114.77 26.5002 114.77C21.0767 114.77 16.6802 119.166 16.6802 124.59C16.6802 130.013 21.0767 134.41 26.5002 134.41Z" stroke="#262626" stroke-width="7" stroke-linecap="round" stroke-linejoin="round"/>
<path d="M98.4999 147.5C111.153 147.5 121.41 137.243 121.41 124.59C121.41 111.937 111.153 101.68 98.4999 101.68C85.847 101.68 75.5898 111.937 75.5898 124.59C75.5898 137.243 85.847 147.5 98.4999 147.5Z" stroke="#262626" stroke-width="7" stroke-linecap="round" stroke-linejoin="round"/>
<path d="M98.5002 134.41C103.924 134.41 108.32 130.013 108.32 124.59C108.32 119.166 103.924 114.77 98.5002 114.77C93.0767 114.77 88.6802 119.166 88.6802 124.59C88.6802 130.013 93.0767 134.41 98.5002 134.41Z" stroke="#262626" stroke-width="7" stroke-linecap="round" stroke-linejoin="round"/>
</svg>
